<svg width="46" height="38" viewBox="0 0 46 38" fill="none" xmlns="http://www.w3.org/2000/svg">
<path d="M42.0351 37.75C41.0351 37.75 40.1351 37.25 39.5351 36.45L28.7351 20.75C27.8351 19.35 28.1351 17.55 29.5351 16.55C30.9351 15.65 32.7351 15.95 33.7351 17.35L44.5351 33.15C45.4351 34.55 45.1351 36.35 43.7351 37.35C43.2351 37.55 42.6351 37.75 42.0351 37.75Z" fill="#7791D1" fill-opacity="0.5"/>
<path d="M22.1351 37.75C20.4351 37.75 19.1351 36.45 19.1351 34.75V3.25C19.1351 1.55 20.4351 0.25 22.1351 0.25C23.8351 0.25 25.1351 1.55 25.1351 3.25V34.75C25.1351 36.45 23.8351 37.75 22.1351 37.75Z" fill="#7791D1" fill-opacity="0.5"/>
<path d="M22.1351 37.75C21.6351 37.75 21.1351 37.65 20.6351 37.35C19.2351 36.55 18.7351 34.65 19.5351 33.25L37.7351 1.75C38.5351 0.350003 40.4351 -0.149998 41.8351 0.650002C43.2351 1.45 43.7351 3.35 42.9351 4.75L24.7351 36.25C24.2351 37.25 23.2351 37.75 22.1351 37.75Z" fill="#7791D1"/>
<path d="M3.93505 37.75C3.43505 37.75 2.93505 37.65 2.43505 37.35C1.03505 36.55 0.535046 34.65 1.33505 33.25L19.535 1.75C20.335 0.350003 22.235 -0.149998 23.635 0.650002C25.035 1.45 25.535 3.35 24.735 4.75L6.53505 36.25C6.03505 37.25 5.03505 37.75 3.93505 37.75Z" fill="#7791D1"/>
</svg>
