<svg width="28" height="28" viewBox="0 0 28 28" fill="none" xmlns="http://www.w3.org/2000/svg">
<path d="M13.4458 2.67754C13.497 2.57424 13.5759 2.48729 13.6739 2.4265C13.7718 2.36571 13.8847 2.3335 14 2.3335C14.1153 2.3335 14.2282 2.36571 14.3261 2.4265C14.4241 2.48729 14.503 2.57424 14.5542 2.67754L17.2492 8.13637C17.4267 8.49567 17.6888 8.80651 18.0129 9.04223C18.337 9.27795 18.7135 9.4315 19.11 9.4897L25.137 10.3717C25.2512 10.3883 25.3585 10.4364 25.4467 10.5108C25.535 10.5851 25.6007 10.6827 25.6364 10.7924C25.672 10.9021 25.6763 11.0197 25.6487 11.1317C25.6211 11.2437 25.5626 11.3458 25.48 11.4264L21.1213 15.6707C20.8339 15.9508 20.6188 16.2966 20.4946 16.6783C20.3705 17.0599 20.3409 17.4661 20.4085 17.8617L21.4375 23.8584C21.4577 23.9725 21.4453 24.09 21.4019 24.1975C21.3585 24.305 21.2858 24.3981 21.192 24.4662C21.0982 24.5343 20.9871 24.5747 20.8715 24.5827C20.7559 24.5908 20.6403 24.5662 20.538 24.5117L15.1503 21.679C14.7953 21.4926 14.4004 21.3952 13.9994 21.3952C13.5985 21.3952 13.2035 21.4926 12.8485 21.679L7.462 24.5117C7.35972 24.5658 7.2443 24.5902 7.12886 24.582C7.01343 24.5738 6.90261 24.5334 6.80902 24.4653C6.71542 24.3972 6.64281 24.3043 6.59944 24.197C6.55606 24.0897 6.54367 23.9724 6.56367 23.8584L7.5915 17.8629C7.6594 17.4671 7.62999 17.0607 7.5058 16.6788C7.38161 16.2968 7.16638 15.9509 6.87867 15.6707L2.52 11.4275C2.4367 11.3471 2.37766 11.2448 2.34963 11.1325C2.32159 11.0201 2.32568 10.9021 2.36143 10.7919C2.39718 10.6818 2.46315 10.5839 2.55183 10.5094C2.64051 10.4349 2.74832 10.3868 2.863 10.3705L8.88884 9.4897C9.2858 9.43195 9.66279 9.2786 9.98735 9.04286C10.3119 8.80711 10.5743 8.49602 10.752 8.13637L13.4458 2.67754Z" fill="white" stroke="white" stroke-width="2" stroke-linecap="round" stroke-linejoin="round"/>
</svg>
