<svg id="Layer_1" data-name="Layer 1" xmlns="http://www.w3.org/2000/svg" viewBox="0 0 300 300"><defs><style>.cls-1{opacity:0.75;}.cls-2{fill:#1b75bb;}.cls-3{fill:#25a9e0;}</style></defs><title>Artboard 1</title><g class="cls-1"><path class="cls-2" d="M144.66,273.51a16.29,16.29,0,0,1-16.29-16.29V41.81a16.29,16.29,0,1,1,32.58,0V257.22A16.29,16.29,0,0,1,144.66,273.51Z"/></g><g class="cls-1"><path class="cls-3" d="M20.27,273.51a16.09,16.09,0,0,1-8.12-2.19,16.28,16.28,0,0,1-6-22.24L130.56,33.66A16.28,16.28,0,1,1,158.76,50L34.4,265.36A16.29,16.29,0,0,1,20.27,273.51Z"/></g><g class="cls-1"><path class="cls-2" d="M280.73,273.51a16.26,16.26,0,0,1-13.45-7.08l-73.86-107.7a16.29,16.29,0,1,1,26.86-18.43L294.14,248a16.29,16.29,0,0,1-13.41,25.5Z"/></g><g class="cls-1"><path class="cls-3" d="M144.64,273.51a16.09,16.09,0,0,1-8.12-2.19,16.27,16.27,0,0,1-6-22.24L254.93,33.66A16.28,16.28,0,1,1,283.13,50L158.76,265.36A16.25,16.25,0,0,1,144.64,273.51Z"/></g></svg>