<svg width="200" height="200" viewBox="0 0 200 200" fill="none" xmlns="http://www.w3.org/2000/svg">
<g clip-path="url(#clip0_11_88)">
<g clip-path="url(#clip1_11_88)">
<path d="M66.6667 199.999C85.0667 199.999 100 185.065 100 166.665V133.332H66.6667C48.2667 133.332 33.3334 148.265 33.3334 166.665C33.3334 185.065 48.2667 199.999 66.6667 199.999Z" fill="#0ACF83"/>
<path d="M33.3334 99.9987C33.3334 81.5987 48.2667 66.6654 66.6667 66.6654H100V133.332H66.6667C48.2667 133.332 33.3334 118.399 33.3334 99.9987Z" fill="#A259FF"/>
<path d="M33.3334 33.3322C33.3334 14.9322 48.2667 -0.00109863 66.6667 -0.00109863H100V66.6654H66.6667C48.2667 66.6654 33.3334 51.7321 33.3334 33.3322Z" fill="#F24E1E"/>
<path d="M100 -0.00109863H133.333C151.733 -0.00109863 166.667 14.9322 166.667 33.3322C166.667 51.7321 151.733 66.6654 133.333 66.6654H100V-0.00109863Z" fill="#FF7262"/>
<path d="M166.667 99.9987C166.667 118.399 151.733 133.332 133.333 133.332C114.933 133.332 100 118.399 100 99.9987C100 81.5987 114.933 66.6654 133.333 66.6654C151.733 66.6654 166.667 81.5987 166.667 99.9987Z" fill="#1ABCFE"/>
</g>
</g>
<defs>
<clipPath id="clip0_11_88">
<rect width="200" height="200" fill="white" transform="translate(0 -0.00109863)"/>
</clipPath>
<clipPath id="clip1_11_88">
<rect width="133.333" height="200" fill="white" transform="translate(33.3334 -0.00109863)"/>
</clipPath>
</defs>
</svg>
