<svg width="200" height="200" viewBox="0 0 200 200" fill="none" xmlns="http://www.w3.org/2000/svg">
<g clip-path="url(#clip0_11_62)">
<g clip-path="url(#clip1_11_62)">
<mask id="mask0_11_62" style="mask-type:luminance" maskUnits="userSpaceOnUse" x="0" y="0" width="200" height="200">
<path d="M0.000183105 0.244873H199.754V199.999H0.000183105V0.244873Z" fill="white"/>
</mask>
<g mask="url(#mask0_11_62)">
<path d="M195.991 91.2274L108.774 4.01665C107.579 2.82113 106.161 1.87275 104.599 1.2257C103.038 0.578647 101.364 0.245605 99.6739 0.245605C97.9837 0.245605 96.3101 0.578647 94.7487 1.2257C93.1873 1.87275 91.7687 2.82113 90.5739 4.01665L72.4696 22.1297L95.4391 45.0992C98.1396 44.1821 101.043 44.0389 103.82 44.6858C106.598 45.3328 109.139 46.7441 111.157 48.7601C113.185 50.7906 114.601 53.3511 115.243 56.1487C115.884 58.9463 115.726 61.868 114.785 64.5796L136.93 86.7187C139.643 85.7766 142.566 85.6179 145.364 86.2608C148.162 86.9037 150.723 88.3221 152.752 90.3535C154.174 91.7746 155.301 93.4619 156.07 95.3189C156.84 97.1759 157.236 99.1662 157.236 101.176C157.236 103.186 156.84 105.177 156.07 107.034C155.301 108.891 154.174 110.578 152.752 111.999C149.878 114.87 145.983 116.482 141.921 116.482C137.859 116.482 133.963 114.87 131.089 111.999C128.954 109.861 127.5 107.139 126.909 104.176C126.318 101.212 126.616 98.1406 127.767 95.3469L107.115 74.7013V129.043C109.295 130.119 111.187 131.7 112.634 133.653C114.082 135.607 115.043 137.877 115.438 140.276C115.833 142.675 115.651 145.134 114.907 147.448C114.163 149.763 112.878 151.867 111.159 153.586C109.738 155.007 108.05 156.135 106.193 156.904C104.336 157.674 102.346 158.07 100.336 158.07C98.3258 158.07 96.3355 157.674 94.4785 156.904C92.6215 156.135 90.9342 155.007 89.5131 153.586C88.0913 152.165 86.9634 150.477 86.194 148.62C85.4245 146.763 85.0284 144.772 85.0284 142.762C85.0284 140.752 85.4245 138.761 86.194 136.904C86.9634 135.047 88.0913 133.359 89.5131 131.938C90.9453 130.503 92.6476 129.366 94.5218 128.593V73.7513C92.6553 72.9825 90.9591 71.8525 89.5306 70.4262C88.1021 68.9999 86.9695 67.3055 86.1979 65.4402C85.4262 63.5749 85.0307 61.5755 85.0341 59.5569C85.0374 57.5382 85.4396 55.5402 86.2174 53.6774L63.5696 31.0253L3.76104 90.8187C1.35095 93.2335 -0.00262451 96.5059 -0.00262451 99.9176C-0.00262451 103.329 1.35095 106.602 3.76104 109.016L90.9826 196.238C93.3974 198.647 96.6692 200.001 100.08 200.001C103.492 200.001 106.764 198.647 109.178 196.238L195.991 109.425C198.401 107.01 199.755 103.738 199.755 100.326C199.755 96.9145 198.401 93.6422 195.991 91.2274Z" fill="#F03C2E"/>
</g>
</g>
</g>
<defs>
<clipPath id="clip0_11_62">
<rect width="200" height="200" fill="white" transform="translate(0 -0.000732422)"/>
</clipPath>
<clipPath id="clip1_11_62">
<rect width="200" height="200" fill="white" transform="translate(0.000183105 -0.000732422)"/>
</clipPath>
</defs>
</svg>
