<svg width="200" height="200" viewBox="0 0 200 200" fill="none" xmlns="http://www.w3.org/2000/svg">
<g clip-path="url(#clip0_11_41)">
<g clip-path="url(#clip1_11_41)">
<path d="M42.0584 183.937L29.1667 39.3036H170.833L157.925 183.916L99.9167 199.999L42.0584 183.937Z" fill="#E44D26"/>
<path d="M100 187.704L146.875 174.704L157.908 51.1285H100V187.704Z" fill="#F16529"/>
<path d="M100 104.77H76.5333L74.9083 86.6036H100V68.8744H55.5292L55.9542 73.6327L60.3125 122.512H100V104.77ZM100 150.841L99.9208 150.862L80.1708 145.529L78.9083 131.379H61.1042L63.5875 159.233L99.9208 169.316L100 169.295V150.841Z" fill="#EBEBEB"/>
<path d="M42.3458 -0.000610352H51.3583V8.90772H59.6083V-0.000610352H68.6167V26.9702H59.6042V17.9369H51.3625V26.9702H42.3458V-0.000610352ZM80.4708 8.94522H72.5375V-0.000610352H97.4208V8.94522H89.4833V26.9702H80.4708V8.94522ZM101.371 -0.000610352H110.767L116.55 9.47439L122.325 -0.000610352H131.725V26.9702H122.75V13.6036L116.55 23.1911H116.396L110.187 13.6036V26.9702H101.375L101.371 -0.000610352ZM136.208 -0.000610352H145.229V18.0536H157.904V26.9702H136.208V-0.000610352Z" fill="black"/>
<path d="M99.9375 104.77V122.512H121.779L119.721 145.512L99.9375 150.854V169.312L136.296 159.229L136.563 156.233L140.729 109.537L141.163 104.77H136.383H99.9375ZM99.9375 68.8702V86.6036H142.779L143.133 82.6202L143.942 73.6286L144.367 68.8702H99.9375Z" fill="white"/>
</g>
</g>
<defs>
<clipPath id="clip0_11_41">
<rect width="200" height="200" fill="white" transform="translate(0 -0.000366211)"/>
</clipPath>
<clipPath id="clip1_11_41">
<rect width="200" height="200" fill="white" transform="translate(0 -0.000610352)"/>
</clipPath>
</defs>
</svg>
